<svg aria-hidden="true" style="position: absolute; width: 0; height: 0; overflow: hidden;" version="1.1" xmlns="http://www.w3.org/2000/svg" xmlns:xlink="http://www.w3.org/1999/xlink">
<defs>
<symbol id="clock" viewBox="0 0 32 32">
<path d="M15.64 3.78c-6.934 0-12.555 5.621-12.555 12.555s5.621 12.555 12.555 12.555v0c6.934 0 12.555-5.621 12.555-12.555s-5.621-12.555-12.555-12.555v0zM20.663 17.591h-5.023c-0.694 0-1.256-0.562-1.256-1.256v0-5.023c0-0.694 0.562-1.256 1.256-1.256s1.256 0.562 1.256 1.256v0 3.766h3.766c0.694 0 1.256 0.562 1.256 1.256s-0.562 1.256-1.256 1.256v0z"></path>
</symbol>
<symbol id="ethereum" viewBox="0 0 20 32">
<path d="M19.565 18.174l-9.784 13.847-9.784-13.847 9.784 5.805 9.784-5.803zM9.781 0l9.777 16.311-9.777 5.801-9.784-5.799 9.784-16.313z"></path>
</symbol>
<symbol id="view" viewBox="0 0 32 32">
<path d="M16.004 6.001c-6.668 0-12.363 4.148-14.67 10.002 2.307 5.855 8.002 10.002 14.67 10.002 6.675 0 12.363-4.148 14.67-10.002-2.307-5.855-7.995-10.002-14.67-10.002zM16.004 22.672c-3.681 0-6.668-2.987-6.668-6.668s2.987-6.668 6.668-6.668 6.668 2.987 6.668 6.668-2.987 6.668-6.668 6.668zM16.004 12.003c-2.207 0-4.001 1.794-4.001 4.001s1.794 4.001 4.001 4.001 4.001-1.794 4.001-4.001-1.794-4.001-4.001-4.001z"></path>
</symbol>
</defs>
</svg>
